<svg viewBox="0 0 320.06 22.65" xmlns="http://www.w3.org/2000/svg" xmlns:xlink="http://www.w3.org/1999/xlink" id="Layer_2" overflow="hidden"><defs></defs><g id="Layer_1-2"><g><path d="M6.75 1.41 9.78 1.41 16.53 22.2 13.74 22.2 12.06 16.71 4.35 16.71 2.7 22.2 0 22.2 6.75 1.41ZM11.37 14.46 8.19 3.96 5.01 14.46 11.37 14.46Z" stroke-width="0" fill="#161D26"/><path d="M16.77 1.41 19.77 1.41 23.82 18.81 27.39 2.04 30.45 2.04 33.96 18.87 38.13 1.41 41.01 1.41 35.46 22.2 32.37 22.2 28.89 5.97 25.38 22.2 22.29 22.2 16.77 1.41Z" stroke-width="0" fill="#161D26"/><path d="M49.37 22.65C48.29 22.65 47.24 22.53 46.22 22.29 45.2 22.05 44.3 21.71 43.52 21.27L43.52 19.11C44.62 19.57 45.62 19.89 46.52 20.07 47.42 20.25 48.37 20.34 49.37 20.34 50.91 20.34 52.13 20.01 53.03 19.36 53.93 18.71 54.38 17.83 54.38 16.7 54.38 16.12 54.3 15.64 54.13 15.26 53.96 14.88 53.65 14.54 53.21 14.24 52.77 13.94 52.12 13.63 51.26 13.31L48.77 12.41C46.77 11.69 45.37 10.89 44.57 9.99 43.77 9.1 43.37 7.92 43.37 6.43 43.37 4.77 44.01 3.44 45.31 2.44 46.6 1.44 48.3 0.94 50.42 0.94 52.38 0.94 54.21 1.34 55.91 2.14L55.91 4.3C53.85 3.6 52.02 3.25 50.42 3.25 49.04 3.25 47.98 3.52 47.24 4.06 46.5 4.6 46.13 5.38 46.13 6.4 46.13 7.26 46.4 7.94 46.92 8.44 47.45 8.94 48.5 9.47 50.05 10.03L52.54 10.93C54.2 11.51 55.38 12.24 56.08 13.12 56.78 14 57.13 15.18 57.13 16.66 57.13 17.88 56.8 18.94 56.14 19.84 55.48 20.74 54.57 21.43 53.41 21.91 52.25 22.39 50.9 22.63 49.36 22.63Z" stroke-width="0" fill="#161D26"/><path d="M80.28 1.41 86.73 1.41C88.65 1.41 90.19 1.91 91.36 2.91 92.53 3.91 93.11 5.24 93.11 6.89 93.11 7.93 92.87 8.82 92.39 9.57 91.91 10.32 91.22 10.89 90.32 11.29 91.6 11.67 92.58 12.3 93.26 13.17 93.94 14.04 94.28 15.12 94.28 16.4 94.28 18.16 93.67 19.57 92.45 20.62 91.23 21.67 89.6 22.2 87.56 22.2L80.27 22.2 80.27 1.41ZM86.49 10.53C89.07 10.53 90.36 9.37 90.36 7.05 90.36 5.89 90.03 5.02 89.38 4.44 88.73 3.86 87.79 3.57 86.55 3.57L82.89 3.57 82.89 10.53 86.49 10.53ZM87.51 20.04C90.17 20.04 91.5 18.8 91.5 16.32 91.5 15.1 91.16 14.18 90.48 13.56 89.8 12.94 88.8 12.63 87.48 12.63L82.89 12.63 82.89 20.04 87.51 20.04Z" stroke-width="0" fill="#161D26"/><path d="M102.44 22.65C101.04 22.65 99.97 22.26 99.23 21.48 98.49 20.7 98.12 19.58 98.12 18.12L98.12 6.99 100.79 6.99 100.79 17.19C100.79 18.31 101 19.13 101.42 19.65 101.84 20.17 102.52 20.43 103.46 20.43 105.08 20.43 106.67 19.9 108.23 18.84L108.23 6.99 110.9 6.99 110.9 22.2 108.65 22.2 108.38 20.49C106.48 21.93 104.5 22.65 102.44 22.65Z" stroke-width="0" fill="#161D26"/><path d="M114.98 20.07 120.59 20.07 120.59 9.12 116 9.12 116 6.99 123.26 6.99 123.26 20.07 128.54 20.07 128.54 22.2 114.98 22.2 114.98 20.07ZM121.44 4.32C120.86 4.32 120.39 4.15 120.03 3.8 119.67 3.45 119.49 2.99 119.49 2.4 119.49 1.81 119.67 1.32 120.03 0.97 120.39 0.62 120.86 0.45 121.44 0.45 122.02 0.45 122.52 0.63 122.88 0.97 123.24 1.32 123.42 1.8 123.42 2.4 123.42 3 123.24 3.44 122.88 3.8 122.52 4.15 122.04 4.32 121.44 4.32Z" stroke-width="0" fill="#161D26"/><path d="M132.3 20.07 137.91 20.07 137.91 2.13 133.05 2.13 133.05 0 140.58 0 140.58 20.07 145.86 20.07 145.86 22.2 132.3 22.2 132.3 20.07Z" stroke-width="0" fill="#161D26"/><path d="M155.44 22.65C153.44 22.65 151.87 21.94 150.73 20.53 149.59 19.12 149.02 17.18 149.02 14.7 149.02 12.22 149.6 10.24 150.77 8.78 151.94 7.31 153.52 6.57 155.5 6.57 156.36 6.57 157.15 6.71 157.88 6.99 158.61 7.27 159.32 7.72 160.02 8.34L160.02 0 162.69 0 162.69 22.2 160.32 22.2 160.08 20.76C159.42 21.36 158.69 21.82 157.89 22.16 157.09 22.5 156.27 22.66 155.43 22.66ZM156.22 20.46C157.4 20.46 158.67 19.96 160.03 18.96L160.03 10.26C159.35 9.72 158.7 9.34 158.08 9.1 157.46 8.87 156.78 8.76 156.04 8.76 154.62 8.76 153.55 9.25 152.83 10.23 152.11 11.21 151.75 12.66 151.75 14.58 151.75 16.5 152.13 17.94 152.9 18.95 153.67 19.96 154.78 20.46 156.21 20.46Z" stroke-width="0" fill="#161D26"/><path d="M174.75 22.65C172.23 22.65 170.31 21.96 169 20.59 167.69 19.22 167.04 17.21 167.04 14.57 167.04 11.93 167.68 10.09 168.96 8.67 170.24 7.26 172.02 6.56 174.3 6.56 176.26 6.56 177.78 7.1 178.88 8.16 179.97 9.23 180.51 10.74 180.51 12.68 180.51 13.6 180.44 14.43 180.3 15.17L169.62 15.17C169.72 17.01 170.2 18.35 171.08 19.19 171.95 20.03 173.29 20.45 175.08 20.45 176.87 20.45 178.63 20.14 180.21 19.52L180.21 21.47C179.53 21.83 178.71 22.12 177.75 22.32 176.79 22.53 175.79 22.64 174.75 22.64ZM178.08 13.32C178.1 13.1 178.11 12.82 178.11 12.48 178.11 11.24 177.78 10.29 177.12 9.63 176.46 8.97 175.5 8.64 174.24 8.64 172.86 8.64 171.78 9.04 171 9.83 170.22 10.62 169.76 11.79 169.62 13.33L178.08 13.33Z" stroke-width="0" fill="#161D26"/><path d="M184.41 22.2 184.41 20.07 188.22 20.07 188.22 9.12 184.44 9.12 184.44 6.99 190.47 6.99 190.8 9.21C191.52 8.37 192.27 7.77 193.05 7.41 193.83 7.05 194.74 6.87 195.78 6.87 196.16 6.87 196.56 6.9 196.98 6.96 197.4 7.02 197.73 7.1 197.97 7.2L197.97 9.6C197.27 9.4 196.46 9.3 195.54 9.3 194.5 9.3 193.62 9.43 192.92 9.7 192.21 9.97 191.53 10.41 190.89 11.01L190.89 20.07 195.87 20.07 195.87 22.2 184.41 22.2Z" stroke-width="0" fill="#161D26"/><path d="M229.38 22.5C226.24 22.5 223.9 21.62 222.36 19.86 220.82 18.1 220.05 15.44 220.05 11.88 220.05 4.74 223.16 1.17 229.38 1.17 230.18 1.17 230.98 1.25 231.78 1.41 232.58 1.57 233.29 1.8 233.91 2.1L233.91 4.32C232.55 3.82 231.11 3.57 229.59 3.57 227.33 3.57 225.65 4.23 224.55 5.53 223.45 6.84 222.9 8.83 222.9 11.49L222.9 12.21C222.9 17.47 225.15 20.1 229.65 20.1 231.29 20.1 232.79 19.81 234.15 19.23L234.15 21.45C233.55 21.77 232.82 22.03 231.98 22.22 231.13 22.41 230.26 22.5 229.38 22.5Z" stroke-width="0" fill="#161D26"/><path d="M245.11 22.65C242.59 22.65 240.68 21.96 239.37 20.59 238.06 19.22 237.4 17.21 237.4 14.57 237.4 11.93 238.04 10.09 239.32 8.67 240.6 7.26 242.38 6.56 244.66 6.56 246.62 6.56 248.14 7.1 249.23 8.16 250.32 9.22 250.87 10.74 250.87 12.68 250.87 13.6 250.8 14.43 250.66 15.17L239.98 15.17C240.08 17.01 240.56 18.35 241.44 19.19 242.32 20.03 243.65 20.45 245.44 20.45 247.23 20.45 248.99 20.14 250.57 19.52L250.57 21.47C249.89 21.83 249.07 22.12 248.11 22.32 247.15 22.53 246.15 22.64 245.11 22.64ZM248.44 13.32C248.46 13.1 248.47 12.82 248.47 12.48 248.47 11.24 248.14 10.29 247.48 9.63 246.82 8.97 245.86 8.64 244.6 8.64 243.22 8.64 242.14 9.04 241.36 9.83 240.58 10.62 240.12 11.79 239.98 13.33L248.44 13.33Z" stroke-width="0" fill="#161D26"/><path d="M255.33 6.99 257.58 6.99 257.85 8.73C259.81 7.29 261.84 6.57 263.94 6.57 265.38 6.57 266.48 6.97 267.25 7.76 268.02 8.55 268.41 9.68 268.41 11.14L268.41 22.21 265.74 22.21 265.74 12.07C265.74 10.93 265.52 10.09 265.07 9.55 264.62 9.01 263.9 8.74 262.92 8.74 261.32 8.74 259.68 9.29 258 10.39L258 22.21 255.33 22.21 255.33 6.99Z" stroke-width="0" fill="#161D26"/><path d="M280.61 22.5C278.91 22.5 277.68 22.12 276.92 21.36 276.16 20.6 275.78 19.36 275.78 17.64L275.78 9.12 272 9.12 272 7.29 275.84 7.02 276.26 2.28 278.45 2.28 278.45 6.99 285.41 6.99 285.41 9.12 278.45 9.12 278.45 17.37C278.45 18.45 278.66 19.21 279.07 19.65 279.48 20.09 280.19 20.31 281.21 20.31 281.89 20.31 282.62 20.25 283.4 20.12 284.18 19.99 284.9 19.82 285.56 19.6L285.56 21.55C285 21.83 284.27 22.06 283.35 22.24 282.44 22.42 281.52 22.51 280.6 22.51Z" stroke-width="0" fill="#161D26"/><path d="M296.84 22.65C294.32 22.65 292.41 21.96 291.1 20.59 289.79 19.22 289.13 17.21 289.13 14.57 289.13 11.93 289.77 10.09 291.05 8.67 292.33 7.26 294.11 6.56 296.39 6.56 298.35 6.56 299.87 7.1 300.96 8.16 302.05 9.22 302.6 10.74 302.6 12.68 302.6 13.6 302.53 14.43 302.39 15.17L291.71 15.17C291.81 17.01 292.29 18.35 293.17 19.19 294.05 20.03 295.38 20.45 297.17 20.45 298.96 20.45 300.72 20.14 302.3 19.52L302.3 21.47C301.62 21.83 300.8 22.12 299.84 22.32 298.88 22.53 297.88 22.64 296.84 22.64ZM300.17 13.32C300.19 13.1 300.2 12.82 300.2 12.48 300.2 11.24 299.87 10.29 299.21 9.63 298.55 8.97 297.59 8.64 296.33 8.64 294.95 8.64 293.87 9.04 293.09 9.83 292.31 10.62 291.85 11.79 291.71 13.33L300.17 13.33Z" stroke-width="0" fill="#161D26"/><path d="M306.5 22.2 306.5 20.07 310.31 20.07 310.31 9.12 306.53 9.12 306.53 6.99 312.56 6.99 312.89 9.21C313.61 8.37 314.36 7.77 315.14 7.41 315.92 7.05 316.83 6.87 317.87 6.87 318.25 6.87 318.65 6.9 319.07 6.96 319.49 7.02 319.82 7.1 320.06 7.2L320.06 9.6C319.36 9.4 318.55 9.3 317.63 9.3 316.59 9.3 315.71 9.43 315.01 9.7 314.31 9.97 313.63 10.41 312.99 11.01L312.99 20.07 317.97 20.07 317.97 22.2 306.51 22.2Z" stroke-width="0" fill="#161D26"/></g></g></svg>